# xmcd
#
# Track frame offsets:
#	150
#	19255
#	36068
#	51861
#	68146
#	86356
#	103390
#	121848
#	141014
#	157348
#	172140
#	191860
#
# Disc length: 2790 seconds
# Revision: 0
# Processed by: cddbd v1.5.2PL0 Copyright (c) Steve Scherf et al.
# Submitted via: dBpowerAMP V12.0
#
DISCID=ad0ae40c
DTITLE=Natalie Howard - Under (Loves) Umbrella
DYEAR=2011
DGENRE=Country
TTITLE0=Paradise
TTITLE1=You Oughta Marry Me
TTITLE2=Hit The Hay
TTITLE3=Yes (A Love Thats Lasts)
TTITLE4=You Ain't Worth The Rain
TTITLE5=A Little Cold Right Now
TTITLE6=The Girlfriend
TTITLE7=Feel Like Letting Go
TTITLE8=Me Too
TTITLE9=And Then Some
TTITLE10=Note To Self
TTITLE11=Grey
EXTD=
EXTT0=
EXTT1=
EXTT2=
EXTT3=
EXTT4=
EXTT5=
EXTT6=
EXTT7=
EXTT8=
EXTT9=
EXTT10=
EXTT11=
PLAYORDER=
